<?xml version="1.0" encoding="utf-8"?>
<!-- Generator: Adobe Illustrator 20.1.0, SVG Export Plug-In . SVG Version: 6.00 Build 0)  -->
<svg version="1.1" id="Layer_1" xmlns="http://www.w3.org/2000/svg" xmlns:xlink="http://www.w3.org/1999/xlink" x="0px" y="0px"
	 viewBox="0 0 369.1 160.7" style="enable-background:new 0 0 369.1 160.7;" xml:space="preserve" preserveAspectRatio="xMaxYMax">
<style type="text/css">

		.st0{opacity:0.45;clip-path:url(#SVGID_2_);fill:none;stroke:#488FCD;stroke-width:0.2676;stroke-miterlimit:10;enable-background:new    ;}
</style>
<g>
	<g>
		<g>
			<defs>
				<rect id="SVGID_1_" y="0.7" width="368.6" height="159.2"/>
			</defs>
			<clipPath id="SVGID_2_">
				<use xlink:href="#SVGID_1_"  style="overflow:visible;"/>
			</clipPath>
			<path class="st0" d="M121,109.2l28.3,34.8 M140.6,125.8L121,109.2 M169.1,163.1l-28.5-37.4 M149.3,144l19.7,19.1 M169.1,163.1
				l-67.6,54 M92.6,183.6l8.9,33.5 M149.3,144l-56.7,39.6 M140.6,125.8l-111.4,70 M101.4,217.1L34,201.6 M34.1,157.1l58.4,26.5
				 M25.6,191.6l8.5-34.5 M121,109.2l-86.9,47.9 M166.3,69l51,49.2 M97.6,86l68.7-17 M214.1,163.1L97.6,86 M217.3,118.2l-3.2,44.9
				 M214.1,163.1L129.5,226 M163.9,162.5L129.6,226 M217.3,118.2l-53.5,44.3 M97.6,86l-80.9,95 M129.5,226.1l-87.7-15.2
				 M104.7,132.6l59.2,29.9 M22,187.2l82.7-54.6 M166.3,69l-61.6,63.6 M-0.5,160.6l122.8-13.8 M110.4,262.5L94.1,273 M122.4,146.8
				l-11.9,115.7 M110.4,262.5l-28.6-4.2 M89.1,177l-11.6,76.2 M122.4,146.8L89.1,177 M25.3,191.2L89.1,177 M212.7,81l5.4,43.6
				 M264.7,89.3l-52-8.3 M254.6,140.3l10.1-51 M218.1,124.6l36.5,15.6 M254.6,140.3l-52.9,52.2 M170.5,162.7l31.2,29.7 M218.1,124.6
				l-47.6,38.1 M264.7,89.3l-83.5,67.5 M201.7,192.5l-20.5-35.7 M142.6,125.2l27.9,37.6 M181.2,156.8l-38.6-31.6 M212.7,81
				l-70.1,44.2 M307,23.6l17.3,64.1 M368.6,0.7L307,23.6 M405.2,113.3l11.5-55.4 M324.2,87.7l81,25.6 M405.2,113.3L277.8,191
				 M255.9,137.8l21.9,53.2 M324.2,87.7l-68.4,50.2 M382,16.6L218.9,143.3 M277.8,191l-58.9-47.8 M220.4,98.3l35.5,39.5
				 M218.9,143.3l1.5-44.9 M307,23.6l-86.6,74.7 M195.1,38l94.3,61.3 M205.3,405.1L195.1,38 M313.4,218.5l-19.9,137.2 M289.3,99.3
				l24.1,119.2 M313.4,218.5l-110.2,10.7 M200.5,146.7l2.6,82.5 M289.3,99.3l-88.8,47.4 M203.2,229.2l-85.1,72.3 M80.7,168.2
				l119.8-21.6 M68.2,242.2l12.5-74 M195.1,38L80.7,168.2 M369.6,274.6l16.4,3.3 M154.1,123.4l215.5,151.2 M369.6,274.6l-8,23.8
				 M154.1,123.4L33.7,201.2 M388.1,150l-34.5-40.5 M369.7,133.8l18.4,16.2 M333.3,89.6l36.3,44.3 M353.5,109.5l-20.2-19.9
				 M333.3,89.6l68.8-49 M353.5,109.5l71-42.3 M369.7,133.8l78.8-38.2 M388.1,150l79-32.3 M336.1,192.6L279,139.4 M444.5,192.7
				l-108.4-0.1 M293.3,97.7l151.2,95 M279,139.4l14.3-41.7 M293.3,97.7l94.6-74 M340.4,90.5l49.9-63.9 M279,139.4l61.5-48.9
				 M444.5,192.7l49.3-43.2 M415.9,125.8l-75.4-35.3 M458.5,107.5l-42.6,18.3 M336.1,192.6l79.8-66.8 M460.5,109.9l-59.3,3.2
				 M401.1,113.2l15.4-55.5 M401.1,113.2l34.4-32.9 M64.6,232.9l38-49.8 M60.7,233.2l3.9-0.3 M44.9,179.9l-16.4,15.2 M102.6,183.1
				l-57.7-3.2 M44.9,179.9l-4.1-27.2 M111.7,161.3l-70.9-8.7 M102.6,183.1l9.1-21.8 M40.8,152.7l-28.9,22.5 M65.8,218.3l46-56.9
				 M48.7,219l17.1-0.7 M64.6,232.9l1.2-14.6 M32.6,186.2l-11.8-0.3 M25.5,191.4l7.1-5.2 M29,195.6l3.6-9.4 M88.6,158.4l17.3-25.2
				 M88.6,158.4l69.8,1.3 M158.9,149.7l-22.6-27.6 M158.4,159.8l0.5-10.1 M136.3,122.1l-30.4,11.1 M50,154.9l-26.6,18.3 M116.9,200
				l-93.5-26.8 M84.7,205.5l14.4-37.6 M102.8,221.4l14.1-21.5 M102.7,164.7l0.2,56.8 M71,210.1l13.7-4.6 M38.9,188.2L71,210.1
				 M99.1,167.8l-36.8,7.1 M26.3,188.6l12.5-0.4 M62.3,174.9l-36,13.7 M44.8,172.2l57.9-7.5 M50,154.9l-5.2,17.3 M201.6,140.3
				l14,3.2 M215.5,143.5l-25.8,28.1 M189.7,171.7l-3.5-2.1 M168.2,158.9l-7.4-9.2 M160.8,149.8l2.2-37.5 M197.9,99.5l3.3,37.7
				 M163,112.3l34.9-12.8 M228,118.9l24.6,15.3 M221.1,99.2L228,119 M258.2,122.2l-5.1-34.8 M252.6,134.2l5.6-12 M253.1,87.4
				l-31.9,11.7 M300.3,153.4l-28.4-51.3 M271.8,102.2l2.3-12.8 M201.5,175.7l25.4-43.1 M266.3,181.7l34-28.3 M236.2,127.6l30.1,54.1
				 M171.5,194.8l14.7-25.2 M96.7,165.3l74.8,29.5 M193.8,178.8l7.6-3.1 M171.6,151.9l14.6,17.8 M215.9,137.9l-14.6-0.7
				 M199.6,146.8l16.3-8.9 M172.8,135.8l-76.1,29.6 M226.9,132.6l-17.7,1.5 M171.3,148.7l0.3,3.2 M209.2,134.1l-7.9,3 M219.6,122.8
				l16.6,4.8 M274.1,89.4l-54.5,33.4 M249.7,190.5L197,108.1 M149.2,90.2l10.2,36.8 M197,108.1l-47.8-17.8 M210,410.7l39.8-220.3
				 M159.3,127l-26.1,9.8 M99,159l87.5,223.9 M133.3,136.9l-26.6,1.8 M106.7,138.6L99,159 M330.1,159.1l-49.5-24.3 M330.8,121.2
				l-0.7,37.9 M333.1,90.5l19.1-38.9 M280.6,134.8l52.6-44.3 M352.2,51.6l59.9,28.5 M412.1,80.1l-81.3,41.1 M445.9,96.8l-98.7-3.1
				 M414.3,125.1l31.6-28.3 M346.4,105.5l27.3,31.9 M347.2,93.7l-0.8,11.8 M373.7,137.4l40.6-12.3 M434.1,78.6l-3.2,6.1 M426.2,89.1
				l3.2-16.1 M430.9,84.7l7.3-1.1 M441.8,87.7l-15.6,1.4 M89.7,188.6L80,177.9 M80,177.9l24.5-7.5 M99,179.1l-5.7,7.1 M93.3,186.2
				l-3.6,2.3 M104.5,170.3l-5.5,8.8 M27,193.3l3.8-2.5 M30.8,190.8l-3,3.4 M186.3,169.6l-18-10.7 M201.3,137.2l0.3,3.2 M186.3,169.6
				l13.3-22.8 M186.3,169.6l7.6,9.2 M201.3,137.2l-28.5-1.4 M201.3,137.2l-30,11.5"/>
		</g>
	</g>
</g>
</svg>
